<svg id="Ebene_1" data-name="Ebene 1" xmlns="http://www.w3.org/2000/svg" viewBox="0 0 58.66572 57.04943"><defs><style>.cls-1{fill:#e99d42;}</style></defs><path class="cls-1" d="M21.31446,17.76862q2.51-2.33787,5.02-4.67561c.49643-.46141,1.00134-.91365,1.586-1.44619v6.72276c-.00555.12792-.01574.25584-.01581.38376q-.00246,8.07657-.00246,16.15321a1.71425,1.71425,0,1,0,3.4211-.00068c.006-1.7032.0026-3.40646.00028-5.10973q-.00791-5.71365-.01854-11.42725H31.305V11.62472c1.094,1.0114,2.0728,1.91259,3.04726,2.81837,1.20608,1.12105,2.40258,2.25237,3.61476,3.36678a1.71949,1.71949,0,0,0,2.46046-.04,1.69821,1.69821,0,0,0-.10391-2.41278c-.32357-.32247-.66943-.62257-1.00346-.93464q-4.21093-3.93368-8.422-7.86721a1.64157,1.64157,0,0,0-2.588.01683c-.7442.70431-1.49469,1.402-2.244,2.10077-2.38124,2.22042-4.77234,4.43031-7.13963,6.66551a1.70369,1.70369,0,1,0,2.388,2.43029Z"/><path class="cls-1" d="M48.57121,30.41009q.0042-3.95645-.00308-7.9129a1.69477,1.69477,0,0,0-1.77058-1.817q-4.56123-.01119-9.12261,0a1.62983,1.62983,0,0,0-1.59881,1.04321,1.68574,1.68574,0,0,0,1.60113,2.36592c2.23465.02175,4.46965.00458,6.70457.0091.86979.00171.75993-.092.762.75959q.01323,5.43948.01908,10.879c-.00629,3.75486-.02073,7.50979-.00889,11.26464.0015.483-.09755.65425-.62593.65336q-15.196-.02493-30.392-.00007c-.527.00089-.63057-.168-.62708-.6526.01689-2.32591-.0024-4.65209-.00883-6.97813.00677-.21931.01943-.43862.01943-.658q-.0001-7.3623-.012-14.7246c-.00137-.42967.10808-.56039.54807-.55608,2.23438.02175,4.469.00807,6.70354.01142a2.21888,2.21888,0,0,0,1.06373-.20973,1.69714,1.69714,0,0,0,.85851-1.852,1.67958,1.67958,0,0,0-1.70142-1.35336q-4.47812-.01087-8.95645-.00246a1.71637,1.71637,0,0,0-1.92874,1.93051q-.00338,8.35137-.0028,16.70265c0,.23765.012.47536.01847.71308-.00561,3.13023-.01813,6.26047-.01177,9.39063a1.58752,1.58752,0,0,0,1.04471,1.53841,2.91257,2.91257,0,0,0,1.13214.16267q17.05457-.00616,34.10908-.00349c.14639,0,.29394.00841.43917-.00554a1.708,1.708,0,0,0,1.74-1.69458c.00739-4.55816-.0054-9.11639-.011-13.67462C48.55931,33.96281,48.56936,32.18648,48.57121,30.41009Z"/></svg>