<svg id="Ebene_1" data-name="Ebene 1" xmlns="http://www.w3.org/2000/svg" viewBox="0 0 97.68475 94.99345"><defs><style>.cls-1{fill:#f4efea;}.cls-2{fill:#9da5ba;}.cls-3{fill:#969eb4;}.cls-4{fill:#9ca4b9;}.cls-5{fill:#e99d42;}</style></defs><circle class="cls-1" cx="69.00311" cy="35.3552" r="24.85857"/><path class="cls-2" d="M39.78564,81.03947c-9.49376-.00013-18.98763.01326-28.4812-.0247-.78775-.00315-2.16635.52438-2.16849-.84671-.00195-1.24526,1.32706-.98237,2.18222-.98312q28.73113-.02484,57.46228-.01231a5.86206,5.86206,0,0,1,.74877.01357c.71968.0932,1.73491.03,1.73369.9766-.00128,1.02995-1.03414.86208-1.74686.86632-3.331.01979-6.66219.01024-9.99334.0104Q49.65414,81.04,39.78564,81.03947Z"/><path class="cls-3" d="M16.06172,58.91606c-.00049,4.3954.01433,8.79089-.016,13.18608-.00464.67747.33562,1.81271-.67893,1.83893-1.25612.03244-.82631-1.20565-.829-1.92156q-.0483-12.93721-.01213-25.87469c.01152-3.6068,1.56977-5.59213,5.16372-5.68806,7.73621-.20646,15.48146-.0852,23.223-.07781.64721.00062,1.552.04315,1.45912.92432-.10559,1.002-1.11038.80625-1.81365.808-7.24242.01828-14.48478.00523-21.7272.01532-3.97325.00553-4.76314.81786-4.76753,4.84718Q16.05654,52.94493,16.06172,58.91606Z"/><path class="cls-4" d="M64.05764,67.13324c.00317-1.81591-.0086-3.63193.00939-5.44766.00671-.67782.09937-1.409.96911-1.46787.992-.06717.94166.73851.944,1.38558q.0204,5.57148-.00128,11.14309c-.00275.73521.03166,1.69365-1.02365,1.60137-.96423-.08433-.89334-1.02839-.89749-1.76675C64.04757,70.76513,64.05446,68.94916,64.05764,67.13324Z"/><path class="cls-5" d="M65.31881,30.34576q1.00851-.93937,2.01708-1.87869c.19947-.18539.40234-.36711.63727-.58109v2.70125c-.00223.05139-.00632.10279-.00635.15419q-.001,3.24522-.001,6.49045a.6888.6888,0,1,0,1.37462-.00028c.00242-.68435.001-1.36873.00011-2.05311q-.00318-2.29578-.00745-4.59153h0V27.87711c.43956.40638.83286.76848,1.2244,1.13243.48462.45045.96538.905,1.45243,1.35279a.6909.6909,0,0,0,.98863-.01608.68235.68235,0,0,0-.04175-.96947c-.13-.12957-.269-.25015-.4032-.37554q-1.692-1.58056-3.384-3.16109a.65959.65959,0,0,0-1.03989.00677c-.299.283-.60057.56333-.90166.8441-.95679.89218-1.91755,1.78012-2.86874,2.67823a.68456.68456,0,1,0,.95952.97651Z"/><path class="cls-5" d="M76.27072,35.42517q.00168-1.58973-.00124-3.17945a.681.681,0,0,0-.71143-.73009q-1.83273-.0045-3.66551,0a.65486.65486,0,0,0-.64241.41916.67735.67735,0,0,0,.64334.95065c.8979.00874,1.79593.00184,2.69393.00365.34949.00069.30535-.037.30617.30521q.00533,2.18561.00767,4.37125c-.00253,1.50872-.00833,3.01747-.00357,4.52619.0006.19408-.0392.26288-.2515.26252q-6.10582-.01-12.21166,0c-.21175.00035-.25337-.06751-.252-.26222.00679-.93456-.001-1.86923-.00354-2.80385.00272-.08812.0078-.17624.0078-.26439q0-2.95821-.00481-5.91642c-.00055-.17264.04343-.22517.22022-.22344.89779.00874,1.79568.00325,2.69352.00459a.89152.89152,0,0,0,.42741-.08427.68192.68192,0,0,0,.345-.74414.67486.67486,0,0,0-.68364-.54378q-1.79934-.00438-3.59875-.001a.68965.68965,0,0,0-.775.77569q-.00136,3.35562-.00113,6.71121c0,.09549.00484.191.00743.28652-.00226,1.25774-.00729,2.51549-.00473,3.7732a.63786.63786,0,0,0,.41977.61814,1.17016,1.17016,0,0,0,.4549.06536q6.85262-.00246,13.7052-.0014c.05882,0,.11811.00338.17646-.00222a.68629.68629,0,0,0,.69915-.68089c.003-1.8315-.00218-3.663-.00443-5.49454C76.26593,36.85267,76.27,36.13893,76.27072,35.42517Z"/><rect class="cls-3" x="34.09853" y="64.55128" width="1.86298" height="4.93623" rx="0.93149"/><rect class="cls-3" x="39.34759" y="42.97661" width="1.86298" height="4.93623" rx="0.93149" transform="translate(85.72381 5.16564) rotate(90)"/><rect class="cls-3" x="39.07262" y="58.01932" width="1.86298" height="11.46819" rx="0.93149"/><rect class="cls-3" x="43.81262" y="61.31294" width="1.86298" height="8.17458" rx="0.93149"/></svg>