<svg id="Ebene_1" data-name="Ebene 1" xmlns="http://www.w3.org/2000/svg" viewBox="0 0 282.43997 282.41182"><defs><style>.cls-1{fill:#fff;}</style></defs><path class="cls-1" d="M282.95227,44.18458c-1.23977,3.593-1.7565,7.399-3.38976,10.88583a43.147,43.147,0,0,1-8.72635,12.26908Q205.322,132.84249,139.8291,198.36665a16.13359,16.13359,0,0,1-6.46052,4.01456q-28.81,9.5566-57.60818,19.14876c-6.71945,2.22924-12.20726-.11647-14.16009-5.9792a9.64427,9.64427,0,0,1-.00595-6.22095Q71.63259,179.08159,81.709,148.84606a12.92479,12.92479,0,0,1,3.36449-4.96684Q150.78626,78.18492,216.46173,12.4534A38.675,38.675,0,0,1,281.55695,29.056c.53013,1.89835.93318,3.8322,1.39532,5.74954Z" transform="translate(-0.5123 -0.662)"/><path class="cls-1" d="M26.33531,282.61182c-13.50874-1.3479-25.11319-13.981-25.76285-28.0507Q.5216,253.4593.52029,252.3553.51678,151.952.53407,51.54876c.00845-15.27272,10.0779-27.43425,24.9266-30.25a37.151,37.151,0,0,1,6.86148-.48148q58.8821-.04138,117.76423-.01561c6.99532.00155,11.23511,3.41108,11.71634,9.34749A9.95933,9.95933,0,0,1,152.637,40.86656c-1.09828.07954-2.205.05687-3.30781.05694q-58.19263.00375-116.38527.00283c-8.54336.00037-12.22627,3.69238-12.22661,12.27281q-.00387,98.74829.00018,197.49655c.00038,8.56685,3.63758,12.17556,12.26439,12.17591q88.66791.00363,177.33584-.0003c6.52451-.00031,10.38829-2.39788,11.68338-7.43467a18.88745,18.88745,0,0,0,.364-4.64508q.02844-48.54663-.00358-97.09325c-.00507-4.78009,1.38291-8.70464,5.95219-10.88143a9.9796,9.9796,0,0,1,13.84668,6.34749,15.82782,15.82782,0,0,1,.47733,4.36753q-.00846,49.09832-.01436,98.1966c-.01509,15.11915-9.1343,26.97777-23.3306,30.49187-.79551.19689-1.624.26023-2.43722.38577-.89692.49456-1.98609-.18561-2.857.46769H29.20255C28.32686,282.42284,27.23805,283.0949,26.33531,282.61182Z" transform="translate(-0.5123 -0.662)"/><path class="cls-1" d="M26.33531,282.61182a3.24031,3.24031,0,0,1,2.86724.462H26.4444A2.60973,2.60973,0,0,1,26.33531,282.61182Z" transform="translate(-0.5123 -0.662)"/><path class="cls-1" d="M213.99854,283.07382a3.25668,3.25668,0,0,1,2.857-.46769q-.05932.23174-.09887.46769Z" transform="translate(-0.5123 -0.662)"/></svg>