<svg id="Ebene_1" data-name="Ebene 1" xmlns="http://www.w3.org/2000/svg" viewBox="0 0 58.66572 57.04943"><defs><style>.cls-1{fill:#e99d42;}</style></defs><g id="_2rDu8A" data-name="2rDu8A"><path class="cls-1" d="M49.25152,20.76782c.00447.07236.00764.09944.0076.12651-.00852,7.01509.05339,14.03025-.02221,21.04525A8.19059,8.19059,0,0,1,49.064,43.927a7.1182,7.1182,0,0,1-5.40157,5.07737,2.38645,2.38645,0,0,1-.40432.03932q-13.8783.00076-27.75657.006a6.23835,6.23835,0,0,1-3.27326-.89668A6.67911,6.67911,0,0,1,9.05682,44.0597a6.46353,6.46353,0,0,1-.20211-1.64146c-.06089-9.08038-.04124-18.16085-.0122-27.24119a6.35543,6.35543,0,0,1,2.88558-5.3195,6.68879,6.68879,0,0,1,3.88226-1.23288c7.10664-.03219,14.21321-.00682,21.31979-.01208a.31254.31254,0,0,1,.17191.041c-.051.04405-.10492.08512-.15246.1326-1.21146,1.20994-2.39163,1.76382-3.646,2.90918a.87924.87924,0,0,1-.58187.235c-5.258.0399-10.51608-.00269-15.77414.0173-2.24059.00851-4.74095,2.58073-4.81518,4.68594-.007.19816.01334.39712.01336.59571q.00115,11.59842-.00691,23.19683a4.76694,4.76694,0,0,0,.36284,2.1351,6.328,6.328,0,0,0,3.65527,3.07748,3.39355,3.39355,0,0,0,.677.0623q6.84816.00533,13.69633.01118,5.27421-.00041,10.54841-.0162a4.85217,4.85217,0,0,0,4.83061-4.82555q.00906-7.19924.0056-14.39849c.00018-.497.00485-.994.00453-1.49105a.52808.52808,0,0,1,.16932-.39643C47.36039,23.228,47.90786,22.11221,49.25152,20.76782Z"/><path class="cls-1" d="M45.6604,7.99969a.95621.95621,0,0,1,.59595.1742,15.65972,15.65972,0,0,1,2.51271,2.28652,7.79085,7.79085,0,0,0,.63492.68423,1.61923,1.61923,0,0,1,.31126,1.76639,4.07512,4.07512,0,0,1-.8977,1.17584c-.45111.44164-.95245.83058-1.37449,1.30253-.10637.11895-.14415-.0002-.19263-.0477-.79574-.77975-.8752-.8569-1.67418-1.63329-1.28258-1.24633-1.84978-1.78832-3.03348-3.13114-.119-.135-.15011-.20281.01842-.33393a9.27358,9.27358,0,0,0,1.03443-1.04,5.38029,5.38029,0,0,1,.96784-.85931A2.01039,2.01039,0,0,1,45.6604,7.99969Z"/><path class="cls-1" d="M46.23,16.32924c-2.05427-2.04252-2.69052-2.66493-4.74185-4.7104-.11093-.1106-.16868-.1277-.29151-.00566q-6.95118,6.90548-13.89381,13.81959a50.84661,50.84661,0,0,0-3.03942,7.11778.70254.70254,0,0,0,.87983.88225,52.01038,52.01038,0,0,0,7.17418-2.99648q4.73647-4.70718,9.47832-9.409,2.22239-2.20572,4.44369-4.41257a.93505.93505,0,0,1,.16308-.10465C46.31749,16.42078,46.27489,16.37386,46.23,16.32924Z"/></g></svg>