<svg id="Ebene_1" data-name="Ebene 1" xmlns="http://www.w3.org/2000/svg" viewBox="0 0 58.66572 57.04943"><defs><style>.cls-1{fill:#e99d42;}</style></defs><path class="cls-1" d="M52.06949,46.64082c-3.16011-2.46782-6.29146-4.973-9.4766-7.4079-.76876-.58768-.90528-.93614-.32089-1.83351a19.76094,19.76094,0,0,0-.7084-22.33005A20.14857,20.14857,0,0,0,20.75766,7.46124a19.86887,19.86887,0,1,0,17.633,34.43956c.70668-.61137,1.05848-.53757,1.69886-.02123,3.08448,2.48711,6.201,4.93462,9.31714,7.38216.53889.42327,1.05273.95649,1.83621.86991a1.77584,1.77584,0,0,0,1.64394-1.30153A1.89814,1.89814,0,0,0,52.06949,46.64082ZM17.60377,41.26671a16.51641,16.51641,0,1,1,15.9161-28.94533,16.51635,16.51635,0,0,1-15.9161,28.94533Z"/><path class="cls-1" d="M23.65483,31.39058a8.5885,8.5885,0,0,1,.38887-2.7029,6.93763,6.93763,0,0,1,1.46907-2.20121l1.88675-1.942a4.348,4.348,0,0,0,1.20983-2.93095,3.34835,3.34835,0,0,0-.79215-2.36444,2.99092,2.99092,0,0,0-2.30443-.85456,3.468,3.468,0,0,0-2.362.77775,2.62956,2.62956,0,0,0-.893,2.08839h-2.6645a4.85221,4.85221,0,0,1,1.66351-3.7663,6.22055,6.22055,0,0,1,4.256-1.43307,5.87585,5.87585,0,0,1,4.24159,1.45947,5.29138,5.29138,0,0,1,1.51948,4.004,7.23843,7.23843,0,0,1-2.33323,4.96172l-1.56989,1.55309a4.83932,4.83932,0,0,0-1.0514,3.351Zm-.11522,4.57525a1.584,1.584,0,0,1,.39607-1.097,1.49413,1.49413,0,0,1,1.17382-.44408,1.51741,1.51741,0,0,1,1.181.44408,1.56732,1.56732,0,0,1,.40327,1.097,1.51577,1.51577,0,0,1-.40327,1.0826,1.54537,1.54537,0,0,1-1.181.42968,1.427,1.427,0,0,1-1.56989-1.51228Z"/></svg>