<svg id="Ebene_1" data-name="Ebene 1" xmlns="http://www.w3.org/2000/svg" viewBox="0 0 97.68475 94.99345"><defs><style>.cls-1{fill:#f4efea;}.cls-2{fill:#929bb2;}.cls-3{fill:#949cb3;}.cls-4{fill:#959db4;}.cls-5{fill:#9ba4b8;}.cls-6{fill:#fdfdfd;}.cls-7{fill:#fbfcfc;}.cls-8{fill:#e99d42;}</style></defs><circle class="cls-1" cx="68.12726" cy="37.56361" r="24.85857"/><path class="cls-2" d="M42.56568,82.21228a15.20993,15.20993,0,0,0-1.99565.01357c-2.11362.28212-3.20905-.42458-2.83633-2.70626.2928-1.7923-.56382-2.383-2.25609-2.17325a8.18409,8.18409,0,0,1-1.99414,0c-1.57448-.19526-2.1609.52216-1.9138,1.98876.40805,2.42183-.799,3.11691-2.97439,2.8863-.57607-.06106-1.16469.00611-1.74672-.01209-1.49093-.04663-3.22007.345-4.4119-.278-1.504-.78615-.5068-2.71477-.66415-4.13283a1.69721,1.69721,0,0,0-1.26625-1.581A7.84856,7.84856,0,0,1,16.769,73.82493c-1.89671-2.70455-4.48177-3.41057-7.56121-2.93218-1.99255.30953-2.61791-.50782-2.49382-2.46947.16195-2.56018.1105-5.14076.01685-7.70771-.07034-1.9282.45182-3.08816,2.64708-2.71656,2.1738.368,3.68751-.31638,4.29267-2.56492a1.57575,1.57575,0,0,1,.53321-.82875c3.38863-2.4106,2.51546-5.36145,1.09033-8.37619-.95346-2.017-.38082-2.77178,1.88979-2.76428a9.83817,9.83817,0,0,1,8.1302,3.57937,3.71764,3.71764,0,0,0,3.39311,1.46528c4.41-.06987,8.8219-.0435,13.23282-.01574,1.629.01025,4.413-.02166,4.2821,1.3049-.17246,1.74742-2.42756.15317-3.76337.188-4.907.128-9.82.01008-14.72973.07005a3.41994,3.41994,0,0,1-3.33618-1.53134A8.10947,8.10947,0,0,0,18.3118,45.0526c-1.05926-.11138-1.72593.19527-1.15307,1.336,1.82659,3.63719,1.57629,6.81079-1.802,9.473a3.093,3.093,0,0,0-.96358,1.71337c-.39878,1.96293-1.60575,2.53236-3.43175,2.23491-2.01518-.32828-2.73926.582-2.46945,2.50643a10.82923,10.82923,0,0,1,.01015,1.491c-.00032,5.16452-.0029,5.21009,5.14974,5.4996a2.94331,2.94331,0,0,1,2.383,1.4925,10.14989,10.14989,0,0,0,5.52137,4.04681c1.74268.46592,2.28719,1.402,2.00786,3.02967-.36894,2.14979.65364,2.54923,2.64275,2.59783,2.46435.0602,4.07325-.22432,3.55577-3.22916-.18137-1.05306.44877-1.46862,1.487-1.44,1.41374.039,2.82946.006,4.24433.00583,3.53422-.00046,3.58123-.00648,4.04577,3.35554.13663.98883.57922,1.26052,1.4528,1.23276a10.96437,10.96437,0,0,1,1.995.01534c2.18249.33546,3.12635-.48838,2.74785-2.71182-.30931-1.81692.55441-2.71154,2.18306-3.59693,4.73129-2.572,6.8673-6.73136,6.73078-12.11753-.02293-.90444-.85124-2.61879.641-2.638,1.25377-.01615.79944,1.74877.85742,2.753A13.53544,13.53544,0,0,1,49.2443,75.22331a3.09258,3.09258,0,0,0-1.72223,3.14129c.05972,3.84484.00017,3.84576-3.95765,3.84767Q43.065,82.21251,42.56568,82.21228Z"/><path class="cls-3" d="M30.03551,37.91715a5.23418,5.23418,0,0,1,5.50733-5.41032,5.50436,5.50436,0,1,1-.16313,11.00387A5.30662,5.30662,0,0,1,30.03551,37.91715Z"/><path class="cls-4" d="M18.01158,59.778a3.03133,3.03133,0,0,1,3.15478-3.30326,2.92061,2.92061,0,0,1,3.051,3.152,2.9915,2.9915,0,0,1-3.14517,3.29085A2.994,2.994,0,0,1,18.01158,59.778Z"/><path class="cls-5" d="M35.219,54.95785c-1.48495-.00113-2.97.00761-4.4548-.0058-.52941-.00478-.99447-.1542-.99677-.81148-.002-.56564.29571-1.01875.84719-1.02665,3.2144-.046,6.42963-.04775,9.6445-.03825.59726.00176.84866.409.84166.98583-.00975.80346-.56524.89427-1.17941.896C38.3539,54.96193,36.78643,54.959,35.219,54.95785Z"/><path class="cls-6" d="M39.46177,38.066A4.23146,4.23146,0,0,1,35.364,41.9723a3.98839,3.98839,0,0,1-3.74479-4.15945,3.91365,3.91365,0,0,1,3.881-3.74847A4.132,4.132,0,0,1,39.46177,38.066Z"/><path class="cls-7" d="M21.2383,61.22783c-.87883-.14711-1.48033-.49894-1.56972-1.37132a1.22857,1.22857,0,0,1,1.26338-1.4646c.79454-.06949,1.50649.17858,1.62228,1.0982C22.681,60.49681,21.96062,60.90059,21.2383,61.22783Z"/><path class="cls-8" d="M66.88282,45.43577a.9998.9998,0,0,1-.68945-.27588l-6.70625-6.08466a.99985.99985,0,0,1-.05176-1.39551l2.76367-3.0498a1.00068,1.00068,0,0,1,.6958-.32764,1.02731,1.02731,0,0,1,.72217.2627l3.11279,2.86132,6.36573-6.68457a.99959.99959,0,0,1,1.37353-.0708l3.01318,2.57325a.99983.99983,0,0,1,.07618,1.44824l-9.95,10.43133a.99723.99723,0,0,1-.7002.31153Zm-5.31025-7.13593,5.27412,4.72089,8.53545-8.94013-1.4917-1.27392L67.5003,39.51712a.99943.99943,0,0,1-1.40088.04688l-3.09424-2.84473Z"/></svg>