<svg id="Ebene_1" data-name="Ebene 1" xmlns="http://www.w3.org/2000/svg" viewBox="0 0 97.68475 94.99345"><defs><style>.cls-1{fill:#929bb2;}.cls-2{fill:#f4efea;}.cls-3{fill:#e99d42;}</style></defs><path class="cls-1" d="M33.96864,31.55725c-.663.1424-1.33153.26336-1.98825.43058a12.91728,12.91728,0,0,0-9.61333,11.30978c-.17437,2.03852-.0784,4.0829-.06893,6.12388a11.74274,11.74274,0,0,1-1.95728,6.67713,13.25238,13.25238,0,0,0-2.0373,5.1777,13.48337,13.48337,0,0,0,2.11113,9.90474.97371.97371,0,0,0,1.38951.40643.96084.96084,0,0,0,.2072-1.467,11.66745,11.66745,0,0,1-1.98556-6.61376,11.16877,11.16877,0,0,1,1.83078-6.20827,13.96541,13.96541,0,0,0,2.362-8.10637c-.02858-1.94646-.099-3.89694.06694-5.84271a11.0715,11.0715,0,0,1,8.781-9.65547,11.99916,11.99916,0,0,1,2.457-.22135c2.28413.05174,4.57331-.13006,6.8528.10238a11.04334,11.04334,0,0,1,9.47564,8.9011,16.86409,16.86409,0,0,1,.204,2.57224c.03421,2.09691-.12478,4.19817.09987,6.2904a12.85843,12.85843,0,0,0,2.11194,5.733A11.48137,11.48137,0,0,1,56.224,64.08544a11.63938,11.63938,0,0,1-4.80682,8.998.47668.47668,0,0,1-.51218.06838,10.95562,10.95562,0,0,0-3.41554-.565,4.006,4.006,0,0,1-3.847-3.81524.56231.56231,0,0,1,.33736-.60858A12.66984,12.66984,0,0,0,50.954,56.461c.014-2.0612.004-4.12258.00146-6.18387-.001-.78523-.32546-1.18928-.94537-1.19417-.616-.00487-.9678.4164-.969,1.17965-.00349,2.19246.00915,4.385-.005,6.57738a10.90674,10.90674,0,0,1-21.61389,2.01075,13.86618,13.86618,0,0,1-.20615-2.73886q.00906-2.36107-.00321-4.7222c-.00167-.265.04584-.36792.34941-.40945a5.29958,5.29958,0,0,0,4.55089-3.80057c.12081-.34858.20622-.39846.51849-.20268a32.55026,32.55026,0,0,0,12.03634,4.53122c.23968.04018.481.07429.72286.097a.93078.93078,0,0,0,1.10607-.77932.91208.91208,0,0,0-.80606-1.08506c-1.28944-.22742-2.57753-.45662-3.8412-.80373a30.94375,30.94375,0,0,1-9.50386-4.43115c-.07684-.05326-.15487-.10505-.23459-.15385a.94184.94184,0,0,0-1.52921.7652,5.37985,5.37985,0,0,1-.52841,2.04817,3.36851,3.36851,0,0,1-3.11471,1.93228c-.22446.00569-.44961-.01736-.67412-.01243a.88572.88572,0,0,0-.9508.89508c.03592,2.80872-.18527,5.625.108,8.42521a12.82337,12.82337,0,0,0,10.209,10.94133,13.13449,13.13449,0,0,0,5.73241-.174c.16829-.04348.37344-.17764.41454.14742A5.9933,5.9933,0,0,0,43.94,73.222c-1.88441,1.45778-3.73929,2.88353-5.58023,4.32706-.26624.20877-.398.04383-.57067-.09q-1.50977-1.16953-3.01956-2.339a.93409.93409,0,0,0-1.14637-.101.91877.91877,0,0,0-.44319.96082,1.08846,1.08846,0,0,0,.49126.7189c1.23072.94881,2.45663,1.90385,3.68734,2.85269a1.02527,1.02527,0,0,0,1.55379-.00994c2.11876-1.63681,4.23976-3.27082,6.34728-4.922a1.05729,1.05729,0,0,1,1.10781-.25489,12.89641,12.89641,0,0,0,2.34163.22652,7.97347,7.97347,0,0,1,6.93592,7.867c.02115,1.87367-.00359,3.74783.00958,5.62164a.9455.9455,0,0,0,1.41143.9218.872.872,0,0,0,.48813-.7735,52.7078,52.7078,0,0,0-.16695-7.463,9.6534,9.6534,0,0,0-4.2911-6.55072,22.8136,22.8136,0,0,0,1.65071-1.60362,13.56525,13.56525,0,0,0,1.31733-16.2622A12.777,12.777,0,0,1,53.955,49.03569a55.888,55.888,0,0,0-.06445-5.78642,12.99912,12.99912,0,0,0-9.928-11.3569,7.66588,7.66588,0,0,1-1.5605-.33512Z"/><path class="cls-1" d="M18.69023,85.03966c0,.9742-.00472,1.94844.00158,2.9226.00459.70891.36881,1.1509.94208,1.166.60011.01582.971-.42448.97264-1.17475.0039-1.761-.00474-3.52214.003-5.28316a7.99821,7.99821,0,0,1,8.07054-8.161,5.75227,5.75227,0,0,0,4.83732-2.61052,1.00408,1.00408,0,0,0-.14146-1.5249c-.47854-.31684-1.01648-.16621-1.42986.42567a4.06062,4.06062,0,0,1-3.48453,1.80308,9.90118,9.90118,0,0,0-9.76415,9.6831c-.01952.91757-.00276,1.83591-.00276,2.7539Z"/><circle class="cls-2" cx="62.99507" cy="30.71722" r="24.85857"/><path class="cls-3" d="M71.46768,27.94473a3.654,3.654,0,0,0-3.41479,3.34314,3.4196,3.4196,0,1,0,6.83844-.00281A3.65906,3.65906,0,0,0,71.46768,27.94473Zm.136,4.91217c-.9505.04608-1.60119-.33117-1.63879-1.35876a1.438,1.438,0,0,1,1.4154-1.64539,1.32339,1.32339,0,0,1,1.61158,1.38239C73.016,32.191,72.628,32.80722,71.60373,32.8569Z"/><path class="cls-3" d="M53.43741,27.9443a3.65439,3.65439,0,0,0-3.37427,3.38416,3.42008,3.42008,0,1,0,6.83893-.0838A3.66746,3.66746,0,0,0,53.43741,27.9443Zm-.079,4.913a1.31131,1.31131,0,0,1-1.37707-1.61066,1.464,1.464,0,0,1,1.60492-1.41412A1.3775,1.3775,0,0,1,54.995,31.49094C54.93991,32.51352,54.31314,32.90274,53.35843,32.85727Z"/><path class="cls-3" d="M62.43155,27.945a3.6283,3.6283,0,0,0-3.36523,3.63165,3.41961,3.41961,0,0,0,6.82959-.33289A3.668,3.668,0,0,0,62.43155,27.945Zm.0528,4.90875a1.27939,1.27939,0,0,1-1.51361-1.25427A1.44994,1.44994,0,0,1,62.304,29.857a1.47773,1.47773,0,0,1,1.6911,1.21845C63.94364,32.21768,63.47263,32.80221,62.48435,32.85379Z"/></svg>