<svg id="Ebene_1" data-name="Ebene 1" xmlns="http://www.w3.org/2000/svg" viewBox="0 0 97.68475 94.99345"><defs><style>.cls-1{fill:#f4efea;}.cls-2{fill:#949cb3;}.cls-3{fill:#939cb3;}.cls-4{fill:#e99d42;}</style></defs><circle class="cls-1" cx="65.49181" cy="28.75315" r="24.85857"/><path class="cls-2" d="M18.84514,62.28557c.001,5.72113-.0427,11.4427.015,17.16326.0448,4.44568,2.16456,6.461,6.65868,6.46667q13.10859.01656,26.21714-.00034c4.815-.00765,6.81817-2.00623,6.82237-6.77165.00714-8.04276-.01744-16.08565.03352-24.1281.00485-.76675-.62433-2.13277.735-2.20992,1.28554-.073,1.05261,1.234,1.05386,2.10515.01193,8.37441.04411,16.74908-.00933,25.12318a7.18137,7.18137,0,0,1-7.3908,7.42q-14.23167.08416-28.46418.00241a7.19821,7.19821,0,0,1-7.39147-7.196q-.15455-18.157-.00241-36.31613c.03459-4.23768,3.31612-7.21507,7.60067-7.24605,5.24315-.0379,10.4869-.02518,15.7301.0075.74591.00465,1.96405-.424,2.02164.78491.06862,1.44067-1.24517.70255-1.87426.71152-4.99271.07119-9.987.02495-14.98062.04452-4.62292.01812-6.72508,2.04494-6.764,6.627C18.8068,50.67715,18.84417,56.48151,18.84514,62.28557Z"/><path class="cls-3" d="M49.50791,66.68522c-1.25946-2.61048-2.57154-5.1969-3.91345-7.76648-1.49744-2.86731-2.84925-2.96308-4.95063-.42353a19.67565,19.67565,0,0,0-1.76269,2.088c-.71076,1.15954-1.39093,1.39886-2.527.498-1.69177-1.34143-3.02527-.84607-4.0462.96961-.89277,1.58776-1.91376,3.10406-2.80335,4.69342-1.25378,2.23993-.43469,3.7276,2.10425,3.787,2.576.06024,5.15448.01331,7.73187.01361s5.15534.034,7.732-.00891C49.79337,70.49057,50.67563,69.10557,49.50791,66.68522Zm-18.739,1.90942c.65009-2.17358,2.13916-3.84277,3.19373-5.73267.67645-1.21228,1.47723-.37744,2.02228.10645,1.54541,1.37195,2.57416,1.0733,3.79321-.55054,3.32068-4.42328,3.38733-4.37585,5.89807.63129.87836,1.75177,1.74573,3.509,2.75824,5.54547Z"/><path class="cls-4" d="M73.43834,23.31435A2.11777,2.11777,0,0,0,72.39421,21.328c-1.3371-.73938-2.3443-.17536-3.29975.815-1.118,1.15881-2.13629,2.37116-4.05847.92151-1.12-.84473-2.35528-.00189-3.29468.94348-1.696,1.70673-3.3175,3.50494-5.15283,5.04956-1.13641.95648-1.021,1.69159.04486,2.23145,2.45465,1.2434,3.49549,3.80334,5.44879,5.49371a12.05616,12.05616,0,0,1,1.23359,1.22913c.53332.61755.96051.70611,1.598.05377,1.85455-1.89771,3.79455-3.71216,5.66278-5.59693A2.74779,2.74779,0,0,0,71.02964,28.65c-.80322-1.04132-.41363-1.52728.309-2.234C72.26933,25.50569,73.42057,24.70052,73.43834,23.31435ZM64.6317,36.12386c-.52936.48333-3.50519-1.7956-3.51752-2.99128-.01679-1.62439-.53851-2.0899-2.12824-2.072-1.01751.01142-1.47644-.75476-.52527-1.64032a21.61821,21.61821,0,0,1,3.69062-3.37c.38806.3305.78088.61706,1.11578.95978.8642.88421,1.71131,1.78552,2.54932,2.69458.83246.903,2.50445,2.35137,2.32135,2.64721A18.99627,18.99627,0,0,1,64.6317,36.12386Zm5.87335-11.13239c-1.30115,1.36523-3.634,2.55658-.69092,4.60107.34607.24042.18408.90986-.38745,2.02839-1.95093-2.155-3.72186-4.10749-5.48694-6.06513-.25836-.2865-.709-.57178-.2514-1.00848a.77053.77053,0,0,1,1.12713.0415c2.24231,2.8559,3.4552.45239,4.87525-.91229a10.02978,10.02978,0,0,1,.89752-.85889.7634.7634,0,0,1,1.11377.02161c.32336.37762.17029.75976-.15235,1.08612C71.19981,24.27919,70.84825,24.63136,70.50505,24.99147Z"/><path class="cls-2" d="M36.86789,51.86466a3.31472,3.31472,0,0,0-3.1781,3.24756c-.12274,1.64538,1.72626,3.316,3.4195,3.26874a3.2647,3.2647,0,1,0-.2414-6.5163Zm.20972,4.72815c-.94818-.03247-1.5827-.47223-1.57776-1.45758A1.399,1.399,0,0,1,37.06614,53.653a1.28636,1.28636,0,0,1,1.42028,1.33478A1.36048,1.36048,0,0,1,37.07761,56.59281Z"/></svg>