<svg id="Ebene_1" data-name="Ebene 1" xmlns="http://www.w3.org/2000/svg" viewBox="0 0 235.97295 282.95396"><defs><style>.cls-1{fill:#fff;}</style></defs><path class="cls-1" d="M121.95081,283.11239c-4.2802-2.11258-5.55933-5.58475-5.5544-10.26892q.13821-131.21934.06771-262.43892c0-.64459-.011-1.28941.00222-1.93372.10666-5.18719,3.11479-8.27876,8.25278-8.28809C142.395.15062,144.071.15,161.74694.183c5.22891.00976,8.23352,3.15018,8.245,8.56437q.04342,20.44253.00975,40.88521,0,111.60564.068,223.21119c.00609,4.68425-1.27479,8.15609-5.55478,10.26866Z" transform="translate(-25.24581 -0.15844)"/><path class="cls-1" d="M213.112,283.11239c-4.29575-2.09574-5.58528-5.5618-5.57678-10.2533q.15849-87.57528.06938-175.151c.00007-7.4176,2.55511-10.00831,9.8904-10.01008,16.664-.004,17.328-.00652,33.992.00125,6.97019.00324,9.66317,2.715,9.66335,9.7039q.00236,87.71368.06839,175.42727c.00824,4.67747-1.29044,8.14771-5.54254,10.28195Z" transform="translate(-25.24581 -0.15844)"/><path class="cls-1" d="M30.78961,283.11239c-4.24975-2.13356-5.5575-5.60069-5.54369-10.27782.11927-40.41294.06792-80.8264.06936-121.2397.00025-7.14455,2.68985-9.84478,9.81013-9.8461,16.65852-.00305,16.317-.00331,32.97557.00013,7.10441.00147,9.75975,2.69056,9.75995,9.87478.00107,40.4133-.05148,80.82675.07082,121.23968.0142,4.69114-1.28467,8.154-5.578,10.249Z" transform="translate(-25.24581 -0.15844)"/></svg>