<svg id="Ebene_1" data-name="Ebene 1" xmlns="http://www.w3.org/2000/svg" viewBox="0 0 283.77987 250.89431"><defs><style>.cls-1{fill:#fff;}</style></defs><path class="cls-1" d="M-.3153,75.12718c2.43271-6.36927,7.14931-8.47366,13.82084-8.41233,24.01216.22076,48.02766.05387,72.04173.106,8.20431.01779,13.46021,7.45083,10.57,14.73307-1.68133,4.23632-5.60117,6.77861-10.73959,6.79772-10.62151.03952-21.24328.01241-31.86494.01255-9.88276.00012-19.766.05108-29.64786-.04378-1.93643-.01859-2.62791.267-2.62454,2.4749q.11726,76.59755.01263,153.19533c-.00242,2.03715.4419,2.58484,2.55114,2.58288q101.82932-.09453,203.65868.00744c2.42251.00265,2.82075-.74641,2.79429-2.94059q-.17-14.10029.01211-28.204a10.57824,10.57824,0,0,1,9.20163-10.18437,10.84176,10.84176,0,0,1,11.504,6.747,12.31244,12.31244,0,0,1,.83295,4.59311c.00124,13.36543.05755,26.73119-.02327,40.09614-.041,6.77995-4.51068,11.16007-11.311,11.38644-.73812.02456-1.47767.00617-2.21657.00617q-112.49724.00021-224.99441.06049c-6.71755.00855-11.426-2.23486-13.57782-8.8198Z" transform="translate(0.3153 -17.247)"/><path class="cls-1" d="M279.82291,91.01637q-35.28328-34.993-70.52457-70.02814a11.95934,11.95934,0,0,0-6.421-3.56573c-6.84764-1.18413-12.53135,3.74386-12.61054,11.15691-.10329,9.67849-.1085,19.3602.03621,29.03764.03282,2.19641-.71254,2.82075-2.71394,2.93208a116.74063,116.74063,0,0,0-13.423,1.83289c-27.438,4.75376-47.7078,19.88869-62.59182,42.85921-11.38152,17.56509-16.64109,36.96666-16.91651,57.7447a87.07439,87.07439,0,0,0,2.92891,24.88762,9.81534,9.81534,0,0,0,8.21468,7.2829,9.96675,9.96675,0,0,0,10.453-4.104c1.56081-2.15652,2.90179-4.47581,4.28021-6.75885,6.2738-10.39132,13.49121-20.02591,22.69494-28.04567,12.60588-10.98432,27.05484-17.62925,43.94161-18.66,2.61361-.15951,3.166.59778,3.129,3.08263-.1456,9.76965-.03664,19.54281-.07018,29.31453-.01421,4.13936,1.281,7.60167,4.88629,9.91216q7.47923,4.79322,14.861-2.62051,33.52688-33.617,67.05366-67.23412c2.51692-2.52029,5.0362-5.00345,6.43378-8.36492v-4.9782A21.10033,21.10033,0,0,0,279.82291,91.01637Zm-67.96447,53.13176c0-3.8428-.15879-7.74443.0294-11.62931.59655-12.315-3.8543-15.70332-15.19567-16.36763-22.95572-1.34462-43.48855,5.21241-61.78635,18.99274a121.20871,121.20871,0,0,0-17.70388,16.728,86.542,86.542,0,0,1,8.14023-27.00582A89.59581,89.59581,0,0,1,144.125,99.78673c9.76627-9.38607,21.87081-13.67373,34.75731-16.35024,6.89653-1.4324,13.90461-1.72485,20.92673-1.92548,8.00068-.22855,11.99452-4.39324,12.02815-12.33115.0206-4.85519.00381-9.71051.00381-14.56579q.34-.13032.68-.26073c14.82407,15.02508,29.64819,30.05012,44.6231,45.228Q234.81126,121.55971,211.85844,144.14813Z" transform="translate(0.3153 -17.247)"/></svg>